<svg width="28" height="28" viewBox="0 0 28 28" fill="none" xmlns="http://www.w3.org/2000/svg">
<g clip-path="url(#clip0_2_114)">
<path d="M25.0833 21H21.5833C21.2613 21 21 20.7387 21 20.4167C21 20.0947 21.2613 19.8333 21.5833 19.8333H25.0833C26.0482 19.8333 26.8333 19.0482 26.8333 18.0833V9.91667C26.8333 8.95183 26.0482 8.16667 25.0833 8.16667H2.91667C1.95183 8.16667 1.16667 8.95183 1.16667 9.91667V18.0833C1.16667 19.0482 1.95183 19.8333 2.91667 19.8333H6.41667C6.73867 19.8333 7 20.0947 7 20.4167C7 20.7387 6.73867 21 6.41667 21H2.91667C1.30783 21 0 19.691 0 18.0833V9.91667C0 8.309 1.30783 7 2.91667 7H25.0833C26.6922 7 28 8.309 28 9.91667V18.0833C28 19.691 26.6922 21 25.0833 21Z" fill="#989899"/>
<path d="M16.9167 24.5H9.91671C9.59471 24.5 9.33337 24.2387 9.33337 23.9167C9.33337 23.5947 9.59471 23.3333 9.91671 23.3333H16.9167C17.2387 23.3333 17.5 23.5947 17.5 23.9167C17.5 24.2387 17.2387 24.5 16.9167 24.5Z" fill="#989899"/>
<path d="M16.9167 22.1667H9.91671C9.59471 22.1667 9.33337 21.9053 9.33337 21.5833C9.33337 21.2613 9.59471 21 9.91671 21H16.9167C17.2387 21 17.5 21.2613 17.5 21.5833C17.5 21.9053 17.2387 22.1667 16.9167 22.1667Z" fill="#989899"/>
<path d="M12.25 19.8334H9.91671C9.59471 19.8334 9.33337 19.572 9.33337 19.25C9.33337 18.928 9.59471 18.6667 9.91671 18.6667H12.25C12.572 18.6667 12.8334 18.928 12.8334 19.25C12.8334 19.572 12.572 19.8334 12.25 19.8334Z" fill="#989899"/>
<path d="M21.5834 8.16667C21.2614 8.16667 21 7.90533 21 7.58333V2.91667C21 1.95183 20.2149 1.16667 19.25 1.16667H8.75004C7.78521 1.16667 7.00004 1.95183 7.00004 2.91667V7.58333C7.00004 7.90533 6.73871 8.16667 6.41671 8.16667C6.09471 8.16667 5.83337 7.90533 5.83337 7.58333V2.91667C5.83337 1.309 7.14121 0 8.75004 0H19.25C20.8589 0 22.1667 1.309 22.1667 2.91667V7.58333C22.1667 7.90533 21.9054 8.16667 21.5834 8.16667Z" fill="#989899"/>
<path d="M19.25 28H8.75004C7.14121 28 5.83337 26.691 5.83337 25.0834V15.75C5.83337 15.428 6.09471 15.1667 6.41671 15.1667H21.5834C21.9054 15.1667 22.1667 15.428 22.1667 15.75V25.0834C22.1667 26.691 20.8589 28 19.25 28ZM7.00004 16.3334V25.0834C7.00004 26.0482 7.78521 26.8334 8.75004 26.8334H19.25C20.2149 26.8334 21 26.0482 21 25.0834V16.3334H7.00004Z" fill="#989899"/>
</g>
<defs>
<clipPath id="clip0_2_114">
<rect width="28" height="28" fill="white"/>
</clipPath>
</defs>
</svg>
