<svg width="62" height="62" viewBox="0 0 62 62" fill="none" xmlns="http://www.w3.org/2000/svg">
<g clip-path="url(#clip0_2_216)">
<path d="M27.2174 40.0796L31.0454 42.3843L34.8239 40.0536L31.0463 38.0657L27.2174 40.0796Z" fill="#777777"/>
<path d="M26.1336 39.4257L26.8848 35.0407L18.4723 28.3975L17.1212 33.9965L26.1336 39.4257Z" fill="#777777"/>
<path d="M25.5195 23.3309L24.5135 26.345L19.2639 27.6699L23.4506 30.8757L28.4697 30.1444L31.0463 24.9337L33.6218 30.1461L38.6417 30.8757L42.8258 27.6699L37.5752 26.3451C37.5752 26.3451 34.0035 15.1627 32.1606 15.1627C29.9427 15.1627 28.4762 15.1627 27.1357 15.1627C25.114 15.1627 25.6708 17.5693 22.6564 17.5693C19.643 17.5693 19.0978 21.1916 19.0978 21.1916C19.0978 21.1916 20.2292 21.1916 23.1164 21.1916C26.0073 21.1915 25.5195 23.3309 25.5195 23.3309ZM26.988 16.9632C27.3481 16.9632 27.638 17.2531 27.638 17.6113C27.638 17.9692 27.3481 18.2609 26.988 18.2609C26.6303 18.2609 26.3395 17.9692 26.3395 17.6113C26.3395 17.2532 26.6321 16.9632 26.988 16.9632Z" fill="#777777"/>
<path d="M35.9479 39.3591L44.9713 33.7908L43.624 28.3957L35.2084 35.0408L35.9479 39.3591Z" fill="#777777"/>
<path d="M44.5287 27.8145L45.8105 33.2821H55.8062C59.907 33.2821 62.0001 27.8145 62.0001 27.8145H44.5287Z" fill="#777777"/>
<path d="M37.1816 40.1168H49.3129C53.4138 40.1168 56.4893 34.649 56.4893 34.649H45.5966L37.1816 40.1168Z" fill="#777777"/>
<path d="M31 44.1171L26.7717 41.3697H12.4308C12.4308 41.3697 16.6597 46.8376 20.7602 46.8376H26.813H35.1868H41.2394C45.3407 46.8376 49.5694 41.3697 49.5694 41.3697H35.2282L31 44.1171Z" fill="#777777"/>
<path d="M16.1897 33.282L17.4712 27.8144H0C0 27.8144 2.0931 33.282 6.19425 33.282H16.1897Z" fill="#777777"/>
<path d="M24.8182 40.1168L16.4033 34.649H5.5105C5.5105 34.649 8.58604 40.1168 12.6869 40.1168H24.8182Z" fill="#777777"/>
</g>
<g clip-path="url(#clip1_2_216)">
<path d="M54 1H8C4.13401 1 1 4.13401 1 8V54C1 57.866 4.13401 61 8 61H54C57.866 61 61 57.866 61 54V8C61 4.13401 57.866 1 54 1Z" fill="#286FFA"/>
<path d="M37.5509 22.1149C34.866 23.8281 32.3609 25.8083 30.0739 28.025C27.9224 30.2575 26.0176 32.7145 24.392 35.3546C24.392 35.3546 31.0099 29.1041 37.5509 25.7941C41.6217 23.7756 46.0309 22.5281 50.5558 22.1149C50.5558 22.1149 50.9808 22.2007 50.5558 23.1447C50.3378 23.6287 48.2328 26.0098 46.1808 29.1178C44.2718 32.0098 42.4059 35.6481 42.4059 35.6481C42.4059 35.6481 43.9789 41.748 44.6059 45.131C45.2329 48.514 45.376 49.8987 43.869 48.8307C42.497 47.8557 33.2008 41.8499 31.5138 40.7599C31.3958 40.6839 31.884 40.9831 31.309 40.6281C30.734 40.2731 32.9929 37.7219 35.8559 34.5709C38.0314 32.2617 40.3352 30.0767 42.756 28.026C38.8972 29.8778 35.3472 32.3138 32.2318 35.2487C29.055 38.1418 26.0834 41.2524 23.338 44.5577C21.122 47.2577 19.873 49.371 19.246 49.191C18.619 49.011 18.9158 45.9908 19.3678 42.7208C21.0566 31.0984 26.0101 20.1942 33.652 11.276C33.652 11.276 33.991 10.8957 34.287 10.9347C34.583 10.9737 34.859 10.9229 35.673 13.7179C36.487 16.5129 37.5509 22.1149 37.5509 22.1149Z" fill="white"/>
<path d="M21.7219 26.5869C21.7219 26.5869 20.758 29.3311 20.2 31.4731C19.8769 32.6818 19.64 33.912 19.491 35.1542C18.2906 34.5127 17.0578 33.9339 15.7971 33.4208C13.8361 32.6338 11.6479 32.0082 11.6479 32.0082C13.1835 30.7244 14.833 29.5831 16.5759 28.5991C18.2122 27.7416 19.938 27.0666 21.7219 26.5869Z" fill="white"/>
</g>
<defs>
<clipPath id="clip0_2_216">
<rect width="62" height="62" fill="white"/>
</clipPath>
<clipPath id="clip1_2_216">
<rect width="60" height="60" fill="white" transform="translate(1 1)"/>
</clipPath>
</defs>
</svg>
